<?xml version="1.0" encoding="UTF-8"?>
<!DOCTYPE svg PUBLIC "-//W3C//DTD SVG 1.1//EN" "http://www.w3.org/Graphics/SVG/1.1/DTD/svg11.dtd">
<svg xmlns="http://www.w3.org/2000/svg" version="1.1" width="168px" height="168px" style="shape-rendering:geometricPrecision; text-rendering:geometricPrecision; image-rendering:optimizeQuality; fill-rule:evenodd; clip-rule:evenodd" xmlns:xlink="http://www.w3.org/1999/xlink">
<g><path style="opacity:0.478" fill="#c7d0f0" d="M 105.5,4.5 C 106.482,5.14083 107.482,5.80749 108.5,6.5C 110.163,4.19933 111.997,4.19933 114,6.5C 120.905,5.44183 126.572,7.77516 131,13.5C 131.333,13.1667 131.667,12.8333 132,12.5C 132.483,13.448 132.649,14.448 132.5,15.5C 134.781,15.0773 136.448,15.744 137.5,17.5C 137.167,17.5 136.833,17.5 136.5,17.5C 130.974,17.1786 125.64,17.5119 120.5,18.5C 119.761,18.369 119.094,18.5357 118.5,19C 120.093,19.9487 121.426,21.1154 122.5,22.5C 121.494,22.9377 121.494,23.6043 122.5,24.5C 118.053,23.5736 113.72,22.2402 109.5,20.5C 108.233,18.6829 106.9,17.0163 105.5,15.5C 106.167,15.5 106.833,15.5 107.5,15.5C 108.873,15.6567 110.207,15.49 111.5,15C 109.825,14.0147 108.158,13.1814 106.5,12.5C 107.573,11.7494 107.74,10.7494 107,9.5C 106.02,8.01862 104.853,6.68529 103.5,5.5C 103.957,4.70245 104.624,4.36912 105.5,4.5 Z"/></g>
<g><path style="opacity:0.531" fill="#3f486c" d="M 107.5,15.5 C 106.833,15.5 106.167,15.5 105.5,15.5C 98.1319,15.3169 90.7985,15.6502 83.5,16.5C 87.7816,14.2667 92.4483,13.2667 97.5,13.5C 101.141,13.3148 104.474,13.9814 107.5,15.5 Z"/></g>
<g><path style="opacity:0.258" fill="#748ee3" d="M 120.5,18.5 C 125.64,17.5119 130.974,17.1786 136.5,17.5C 136.833,18.8333 137.167,18.8333 137.5,17.5C 138.239,17.369 138.906,17.5357 139.5,18C 138.269,19.1827 138.269,20.3493 139.5,21.5C 141.614,22.0339 143.448,23.0339 145,24.5C 147.409,28.0289 149.909,31.5289 152.5,35C 151.795,36.4219 151.461,37.7553 151.5,39C 152.362,41.7344 153.195,41.9011 154,39.5C 155.629,41.9845 155.129,44.1512 152.5,46C 154.756,47.4992 154.756,49.1659 152.5,51C 152.5,54.6667 152.5,58.3333 152.5,62C 151.646,62.5739 150.646,63.2406 149.5,64C 149.57,64.7648 149.903,65.2648 150.5,65.5C 149.89,66.391 149.557,67.391 149.5,68.5C 143.877,56.8293 138.71,44.8293 134,32.5C 130.669,26.6698 126.169,22.0032 120.5,18.5 Z"/></g>
<g><path style="opacity:0.004" fill="#778ddf" d="M 20.5,20.5 C 21.8333,21.1667 21.8333,21.1667 20.5,20.5 Z"/></g>
<g><path style="opacity:0.006" fill="#738fe2" d="M 20.5,22.5 C 21.525,22.8966 21.6917,23.5632 21,24.5C 20.5357,23.9056 20.369,23.2389 20.5,22.5 Z"/></g>
<g><path style="opacity:0.213" fill="#748ee1" d="M 105.5,4.5 C 104.624,4.36912 103.957,4.70245 103.5,5.5C 104.853,6.68529 106.02,8.01862 107,9.5C 107.74,10.7494 107.573,11.7494 106.5,12.5C 95.3076,10.6986 84.641,12.3652 74.5,17.5C 41.8937,9.56894 24.727,22.5689 23,56.5C 17.282,67.8038 15.1153,79.8038 16.5,92.5C 16.0826,89.8411 15.0826,87.5078 13.5,85.5C 12.8089,82.7499 11.8089,80.0832 10.5,77.5C 10.7093,76.914 11.0426,76.414 11.5,76C 2.84331,69.1453 1.67664,61.6453 8,53.5C 12.4507,50.7171 16.6174,47.5504 20.5,44C 18.6016,43.3599 18.2683,42.0266 19.5,40C 19.5607,38.2894 18.8941,36.956 17.5,36C 18.988,31.1901 21.1547,26.6901 24,22.5C 24.3333,22.8333 24.6667,23.1667 25,23.5C 25.9589,21.3423 27.4589,21.009 29.5,22.5C 30.938,22.2811 32.2713,21.7811 33.5,21C 31.8934,19.951 31.2267,18.451 31.5,16.5C 39.3614,17.5092 45.0281,14.3425 48.5,7C 49.6086,6.36229 50.7753,5.86229 52,5.5C 55.926,6.57283 59.926,6.57283 64,5.5C 65.5116,7.68632 67.5116,9.35299 70,10.5C 72.1317,9.22033 74.2984,9.22033 76.5,10.5C 78.9028,9.29557 81.2362,8.96224 83.5,9.5C 84.5223,9.14451 85.189,8.47784 85.5,7.5C 87.7604,6.86112 89.7604,5.69446 91.5,4C 94.1892,2.78615 96.8559,2.61948 99.5,3.5C 101.029,3.47116 102.196,2.80449 103,1.5C 104.045,2.37344 104.878,3.37344 105.5,4.5 Z"/></g>
<g><path style="opacity:0.004" fill="#748fe4" d="M 78.5,7.5 C 79.8333,8.16667 79.8333,8.16667 78.5,7.5 Z"/></g>
<g><path style="opacity:0.004" fill="#798feb" d="M 85.5,7.5 C 84.8333,6.16667 84.8333,6.16667 85.5,7.5 Z"/></g>
<g><path style="opacity:0.518" fill="#7890de" d="M 105.5,15.5 C 106.9,17.0163 108.233,18.6829 109.5,20.5C 113.72,22.2402 118.053,23.5736 122.5,24.5C 125.167,26.8333 127.833,29.1667 130.5,31.5C 133.698,34.8949 135.531,38.8949 136,43.5C 120.63,25.704 101.13,17.204 77.5,18C 79.3453,16.872 81.3453,16.372 83.5,16.5C 90.7985,15.6502 98.1319,15.3169 105.5,15.5 Z"/></g>
<g><path style="opacity:0.014" fill="#748fe4" d="M 148.5,26.5 C 149.289,26.7828 149.956,27.2828 150.5,28C 149.184,28.5281 148.517,28.0281 148.5,26.5 Z"/></g>
<g><path style="opacity:0.004" fill="#7790ea" d="M 17.5,38.5 C 18.8333,39.1667 18.8333,39.1667 17.5,38.5 Z"/></g>
<g><path style="opacity:0.006" fill="#718fe5" d="M 1.5,62.5 C 2.77329,63.0768 2.77329,63.7435 1.5,64.5C 0.537047,64.0302 0.537047,63.3635 1.5,62.5 Z"/></g>
<g><path style="opacity:0.006" fill="#7290e7" d="M 150.5,65.5 C 151.077,64.2267 151.743,64.2267 152.5,65.5C 152.03,66.463 151.363,66.463 150.5,65.5 Z"/></g>
<g><path style="opacity:0.012" fill="#7996ee" d="M 151.5,67.5 C 152.776,68.3864 152.776,69.3864 151.5,70.5C 150.438,69.5754 150.438,68.5754 151.5,67.5 Z"/></g>
<g><path style="opacity:0.004" fill="#7998eb" d="M 151.5,71.5 C 152.525,71.8966 152.692,72.5632 152,73.5C 151.536,72.9056 151.369,72.2389 151.5,71.5 Z"/></g>
<g><path style="opacity:0.004" fill="#7791e6" d="M 153.5,77.5 C 154.833,78.1667 154.833,78.1667 153.5,77.5 Z"/></g>
<g><path style="opacity:0.016" fill="#758fe5" d="M 153.5,79.5 C 155.3,80.8948 155.634,82.5615 154.5,84.5C 153.548,82.9547 153.215,81.288 153.5,79.5 Z"/></g>
<g><path style="opacity:0.01" fill="#7590e6" d="M 7.5,91.5 C 8.52502,91.8966 8.69169,92.5632 8,93.5C 7.53566,92.9056 7.36899,92.2389 7.5,91.5 Z"/></g>
<g><path style="opacity:0.228" fill="#4a6dde" d="M 13.5,85.5 C 15.0826,87.5078 16.0826,89.8411 16.5,92.5C 16.5,93.1667 16.5,93.8333 16.5,94.5C 15.564,97.7676 13.564,100.101 10.5,101.5C 9.83333,101.5 9.5,101.833 9.5,102.5C 8.76109,102.631 8.09442,102.464 7.5,102C 9.6348,100.444 9.96813,98.6109 8.5,96.5C 10.3786,96.6068 10.7119,96.1068 9.5,95C 10.0885,92.4858 11.4219,90.4858 13.5,89C 12.3157,87.8545 12.3157,86.6879 13.5,85.5 Z"/></g>
<g><path style="opacity:0.004" fill="#7691e4" d="M 8.5,96.5 C 7.83333,95.1667 7.83333,95.1667 8.5,96.5 Z"/></g>
<g><path style="opacity:0.815" fill="#89a0e9" d="M 136.5,87.5 C 136.703,89.3904 136.037,90.8904 134.5,92C 132.167,93.5 129.833,95 127.5,96.5C 125.065,94.7207 124.065,95.3873 124.5,98.5C 122.319,98.7163 120.653,97.883 119.5,96C 116.006,95.1386 113.673,96.4719 112.5,100C 113.973,100.71 114.64,101.876 114.5,103.5C 115.675,103.281 116.675,103.614 117.5,104.5C 115.703,105.695 114.703,107.362 114.5,109.5C 111.944,109.132 109.944,109.966 108.5,112C 107.844,115.008 107.844,117.841 108.5,120.5C 106.179,123.394 105.012,126.727 105,130.5C 103.169,133.314 101.335,136.148 99.5,139C 95.5308,141.097 91.6974,140.93 88,138.5C 83.3518,139.087 78.8518,139.754 74.5,140.5C 72.8089,139.136 71.1423,137.803 69.5,136.5C 70.2409,133.226 72.5742,130.726 76.5,129C 74.2429,127.55 71.9095,126.383 69.5,125.5C 69.9175,124.778 70.5842,124.278 71.5,124C 70.2528,122.506 70.2528,121.006 71.5,119.5C 73.1769,120.954 74.1769,122.954 74.5,125.5C 75.2935,125.931 76.1268,126.265 77,126.5C 78.091,124.654 79.4244,123.987 81,124.5C 82.6756,126.315 83.5089,128.149 83.5,130C 88.7751,131.909 94.1085,133.076 99.5,133.5C 101.047,132.232 102.047,130.565 102.5,128.5C 100.19,126.517 97.5235,125.517 94.5,125.5C 94.3505,124.448 94.5172,123.448 95,122.5C 97.4932,123.946 99.3265,123.279 100.5,120.5C 100.154,119.304 99.6543,119.304 99,120.5C 98.3623,119.391 97.8623,118.225 97.5,117C 99.7864,112.744 99.6198,108.911 97,105.5C 96,106.833 95,106.833 94,105.5C 93.3333,103.5 92.6667,101.5 92,99.5C 90.9239,102.36 90.0905,105.36 89.5,108.5C 88.147,107.315 86.9803,105.981 86,104.5C 84.5468,108.041 82.5468,110.374 80,111.5C 78.984,110.366 78.3173,110.699 78,112.5C 77.586,112.043 77.086,111.709 76.5,111.5C 73.8922,113.456 71.2255,114.456 68.5,114.5C 68.2907,115.086 67.9574,115.586 67.5,116C 71.2721,117.389 71.2721,118.389 67.5,119C 68.1667,119.667 68.8333,120.333 69.5,121C 67.2542,122.257 65.9209,124.09 65.5,126.5C 64.5041,126.586 63.6708,126.252 63,125.5C 62.7489,123.567 62.2489,121.734 61.5,120C 61.8333,119.667 62.1667,119.333 62.5,119C 59.3626,117.465 57.0293,115.132 55.5,112C 56.676,110.086 57.676,110.252 58.5,112.5C 59.8448,111.653 60.8448,110.487 61.5,109C 64.2356,108.578 66.9023,108.578 69.5,109C 74.178,106.3 76.8447,102.634 77.5,98C 78.6716,97.6466 79.8382,97.8132 81,98.5C 82.3762,96.953 83.8762,95.6197 85.5,94.5C 87.2504,93.1302 89.2504,92.1302 91.5,91.5C 92.9514,93.0145 94.618,93.8478 96.5,94C 96.1667,94.3333 95.8333,94.6667 95.5,95C 97.2132,96.9251 98.5465,99.0918 99.5,101.5C 100.672,96.959 102.672,96.959 105.5,101.5C 106.689,102.429 108.022,102.762 109.5,102.5C 109.629,100.784 109.962,99.1172 110.5,97.5C 113.081,96.4251 115.247,94.7585 117,92.5C 120.984,92.5586 124.984,92.8919 129,93.5C 129.611,91.2499 130.944,89.5832 133,88.5C 133.414,88.9574 133.914,89.2907 134.5,89.5C 135.182,88.7573 135.849,88.0906 136.5,87.5 Z"/></g>
<g><path style="opacity:0.066" fill="#7489d6" d="M 150.5,74.5 C 154.078,75.1373 154.412,76.6373 151.5,79C 152.264,81.0693 152.764,83.236 153,85.5C 153.5,87.3333 154.667,88.5 156.5,89C 154.606,90.0793 154.273,91.4126 155.5,93C 154.374,96.3002 153.374,99.6336 152.5,103C 153.428,103.388 154.095,104.055 154.5,105C 153.629,106.364 152.629,107.53 151.5,108.5C 149.544,110.175 148.211,109.842 147.5,107.5C 150.204,96.6997 151.204,85.6997 150.5,74.5 Z"/></g>
<g><path style="opacity:0.817" fill="#7f98e8" d="M 69.5,125.5 C 68.4324,126.434 67.099,126.768 65.5,126.5C 65.9209,124.09 67.2542,122.257 69.5,121C 68.8333,120.333 68.1667,119.667 67.5,119C 71.2721,118.389 71.2721,117.389 67.5,116C 67.9574,115.586 68.2907,115.086 68.5,114.5C 71.2255,114.456 73.8922,113.456 76.5,111.5C 77.086,111.709 77.586,112.043 78,112.5C 78.3173,110.699 78.984,110.366 80,111.5C 82.5468,110.374 84.5468,108.041 86,104.5C 86.9803,105.981 88.147,107.315 89.5,108.5C 90.0905,105.36 90.9239,102.36 92,99.5C 92.6667,101.5 93.3333,103.5 94,105.5C 95,106.833 96,106.833 97,105.5C 99.6198,108.911 99.7864,112.744 97.5,117C 97.8623,118.225 98.3623,119.391 99,120.5C 99.6543,119.304 100.154,119.304 100.5,120.5C 99.3265,123.279 97.4932,123.946 95,122.5C 94.5172,123.448 94.3505,124.448 94.5,125.5C 97.5235,125.517 100.19,126.517 102.5,128.5C 102.047,130.565 101.047,132.232 99.5,133.5C 94.1085,133.076 88.7751,131.909 83.5,130C 83.5089,128.149 82.6756,126.315 81,124.5C 79.4244,123.987 78.091,124.654 77,126.5C 76.1268,126.265 75.2935,125.931 74.5,125.5C 74.1769,122.954 73.1769,120.954 71.5,119.5C 70.2528,121.006 70.2528,122.506 71.5,124C 70.5842,124.278 69.9175,124.778 69.5,125.5 Z"/></g>
<g><path style="opacity:0.33" fill="#728ad7" d="M 16.5,94.5 C 18.1251,100.394 19.7918,106.394 21.5,112.5C 21.5858,113.496 21.2524,114.329 20.5,115C 18.3476,116.413 16.0143,117.246 13.5,117.5C 13.5,116.5 13.5,115.5 13.5,114.5C 12.5,114.5 11.5,114.5 10.5,114.5C 11.5391,110.423 11.2058,106.423 9.5,102.5C 10.1667,102.5 10.5,102.167 10.5,101.5C 13.564,100.101 15.564,97.7676 16.5,94.5 Z"/></g>
<g><path style="opacity:0.004" fill="#7590e5" d="M 154.5,101.5 C 154.897,100.475 155.563,100.308 156.5,101C 155.906,101.464 155.239,101.631 154.5,101.5 Z"/></g>
<g><path style="opacity:0.984" fill="#b7a671" d="M 106.5,12.5 C 108.158,13.1814 109.825,14.0147 111.5,15C 110.207,15.49 108.873,15.6567 107.5,15.5C 104.474,13.9814 101.141,13.3148 97.5,13.5C 92.4483,13.2667 87.7816,14.2667 83.5,16.5C 81.3453,16.372 79.3453,16.872 77.5,18C 101.13,17.204 120.63,25.704 136,43.5C 135.531,38.8949 133.698,34.8949 130.5,31.5C 128.57,27.8998 125.903,24.8998 122.5,22.5C 121.426,21.1154 120.093,19.9487 118.5,19C 119.094,18.5357 119.761,18.369 120.5,18.5C 126.169,22.0032 130.669,26.6698 134,32.5C 138.71,44.8293 143.877,56.8293 149.5,68.5C 149.833,70.5 150.167,72.5 150.5,74.5C 151.204,85.6997 150.204,96.6997 147.5,107.5C 146.59,109.019 145.757,110.685 145,112.5C 144.536,111.906 144.369,111.239 144.5,110.5C 151.459,92.9105 150.959,75.5772 143,58.5C 142.501,64.1569 142.334,69.8236 142.5,75.5C 141.833,70.5 141.167,65.5 140.5,60.5C 141.552,54.7428 139.885,50.0762 135.5,46.5C 125.293,32.0532 111.293,23.7198 93.5,21.5C 87.3554,20.5098 81.0221,20.1765 74.5,20.5C 72.9468,18.615 70.9468,17.615 68.5,17.5C 66.7839,17.3713 65.1172,17.038 63.5,16.5C 50.3493,14.6652 39.8493,18.9986 32,29.5C 29.9653,32.5612 28.7986,35.8945 28.5,39.5C 27.7784,39.9175 27.2784,40.5842 27,41.5C 26.3333,44.1667 26.3333,46.8333 27,49.5C 36.3477,35.3114 49.181,25.9781 65.5,21.5C 66.4916,21.3284 67.1583,21.6618 67.5,22.5C 60.5957,27.898 54.0957,33.898 48,40.5C 44.7272,44.0518 42.2272,48.0518 40.5,52.5C 35.3094,59.7106 31.6428,67.7106 29.5,76.5C 32.2026,87.2354 36.536,97.2354 42.5,106.5C 46.9226,113.011 51.5892,119.345 56.5,125.5C 56.5,125.833 56.5,126.167 56.5,126.5C 52.2673,122.357 48.2673,118.023 44.5,113.5C 38.2298,103.294 32.7298,92.6278 28,81.5C 25.4168,92.0797 24.9168,102.746 26.5,113.5C 26.5,113.833 26.5,114.167 26.5,114.5C 26.1788,116.048 25.1788,116.715 23.5,116.5C 23.3404,114.847 22.6737,113.514 21.5,112.5C 19.7918,106.394 18.1251,100.394 16.5,94.5C 16.5,93.8333 16.5,93.1667 16.5,92.5C 15.1153,79.8038 17.282,67.8038 23,56.5C 24.727,22.5689 41.8937,9.56894 74.5,17.5C 84.641,12.3652 95.3076,10.6986 106.5,12.5 Z"/></g>
<g><path style="opacity:0.632" fill="#6c86db" d="M 44.5,113.5 C 41.7508,113.274 39.0841,113.607 36.5,114.5C 36.0894,113.738 35.9227,112.738 36,111.5C 33.7174,112.719 31.384,112.719 29,111.5C 27.9889,112.056 27.1556,112.722 26.5,113.5C 24.9168,102.746 25.4168,92.0797 28,81.5C 32.7298,92.6278 38.2298,103.294 44.5,113.5 Z"/></g>
<g><path style="opacity:0.876" fill="#a4b6ee" d="M 104.5,60.5 C 104.935,63.7859 106.769,66.1193 110,67.5C 110.667,70.1667 110.667,72.8333 110,75.5C 108.414,76.376 106.914,77.376 105.5,78.5C 105.709,79.086 106.043,79.586 106.5,80C 104.833,80.8333 103.167,81.6667 101.5,82.5C 98.3508,85.844 95.0175,88.844 91.5,91.5C 89.2504,92.1302 87.2504,93.1302 85.5,94.5C 83.5891,94.4257 82.4224,93.4257 82,91.5C 81.6667,92.1667 81.3333,92.8333 81,93.5C 78.2177,92.6537 75.3843,92.487 72.5,93C 69.8758,92.4236 69.2092,91.0902 70.5,89C 68.1457,86.8024 65.6457,85.6358 63,85.5C 62.1301,86.1079 61.6301,86.9412 61.5,88C 61.9721,91.6522 62.9721,95.1522 64.5,98.5C 61.7444,102.742 57.9111,105.742 53,107.5C 50.8122,105.305 48.9789,102.805 47.5,100C 50.0274,97.5329 50.0274,95.0329 47.5,92.5C 48.1667,91.8333 48.8333,91.1667 49.5,90.5C 52.7418,86.8663 56.7418,84.1996 61.5,82.5C 65.0572,82.8659 68.2239,84.5325 71,87.5C 71.3318,85.061 71.1651,83.061 70.5,81.5C 70.4606,80.4168 70.1272,79.4168 69.5,78.5C 70.376,77.7492 71.376,77.2492 72.5,77C 71.3333,76.5 70.5,75.6667 70,74.5C 69.5488,76.9288 68.7155,77.0955 67.5,75C 67.8333,74.6667 68.1667,74.3333 68.5,74C 67.5,73.6667 66.5,73.3333 65.5,73C 66.9375,71.7592 68.4375,71.2592 70,71.5C 71.4415,69.6951 71.6082,67.6951 70.5,65.5C 72.451,65.2267 73.951,65.8934 75,67.5C 77.0433,65.033 79.2099,65.033 81.5,67.5C 80.0672,69.1221 78.4005,70.4554 76.5,71.5C 77.6888,72.4287 79.0222,72.762 80.5,72.5C 80.5,73.8333 80.5,75.1667 80.5,76.5C 83.4067,76.5752 86.0734,77.4086 88.5,79C 90.8179,83.6187 92.9846,83.452 95,78.5C 95.7194,73.9652 94.386,73.2985 91,76.5C 89.9563,75.3774 89.2896,74.0441 89,72.5C 87.2287,71.6959 85.7287,70.5292 84.5,69C 85.8989,68.4054 87.2322,68.5721 88.5,69.5C 89.1924,68.9747 89.6924,68.3081 90,67.5C 90.7096,68.9733 91.8762,69.6399 93.5,69.5C 94.4837,74.658 95.3171,74.658 96,69.5C 97.1332,71.2112 98.6332,71.7112 100.5,71C 100.619,69.7188 100.119,68.5521 99,67.5C 98.6667,67.8333 98.3333,68.1667 98,68.5C 97.6258,67.5838 97.1258,66.7504 96.5,66C 93.905,65.7744 91.405,65.2744 89,64.5C 88.6667,65.5 88.3333,66.5 88,67.5C 86.738,65.6972 85.0713,64.3639 83,63.5C 82.3828,62.5509 82.5494,61.7175 83.5,61C 87.2521,59.8834 91.0855,59.0501 95,58.5C 97.8857,60.2254 101.052,60.8921 104.5,60.5 Z"/></g>
<g><path style="opacity:0.561" fill="#617dd9" d="M 23.5,58.5 C 24.6044,64.4172 25.9377,70.4172 27.5,76.5C 24.2717,87.592 22.7717,98.9253 23,110.5C 16.8912,93.1094 17.0579,75.7761 23.5,58.5 Z"/></g>
<g><path style="opacity:0.438" fill="#657bc4" d="M 144.5,110.5 C 144.167,110.5 143.833,110.5 143.5,110.5C 143.342,103.212 142.342,96.0451 140.5,89C 141.25,84.504 141.916,80.004 142.5,75.5C 142.334,69.8236 142.501,64.1569 143,58.5C 150.959,75.5772 151.459,92.9105 144.5,110.5 Z"/></g>
<g><path style="opacity:0.807" fill="#96abec" d="M 110.5,97.5 C 109.962,99.1172 109.629,100.784 109.5,102.5C 108.022,102.762 106.689,102.429 105.5,101.5C 102.672,96.959 100.672,96.959 99.5,101.5C 98.5465,99.0918 97.2132,96.9251 95.5,95C 95.8333,94.6667 96.1667,94.3333 96.5,94C 94.618,93.8478 92.9514,93.0145 91.5,91.5C 95.0175,88.844 98.3508,85.844 101.5,82.5C 103.167,81.6667 104.833,80.8333 106.5,80C 106.043,79.586 105.709,79.086 105.5,78.5C 106.914,77.376 108.414,76.376 110,75.5C 110.667,72.8333 110.667,70.1667 110,67.5C 106.769,66.1193 104.935,63.7859 104.5,60.5C 103.951,58.3129 102.785,57.6462 101,58.5C 100.021,53.4227 97.521,52.4227 93.5,55.5C 91.5302,54.5569 90.0302,55.2236 89,57.5C 88.6667,57.1667 88.3333,56.8333 88,56.5C 86.5557,58.1554 84.7224,58.822 82.5,58.5C 81.791,57.596 80.791,57.2627 79.5,57.5C 79.5867,53.759 81.5867,51.759 85.5,51.5C 87.8611,53.5637 90.1944,53.2304 92.5,50.5C 93.1973,52.3845 94.1973,52.7178 95.5,51.5C 98.161,52.3323 100.828,53.1656 103.5,54C 103.957,56.7592 105.457,58.5925 108,59.5C 109.326,59.2451 110.326,58.5784 111,57.5C 111.483,58.448 111.649,59.448 111.5,60.5C 110.5,60.5 109.5,60.5 108.5,60.5C 108.744,63.2626 110.077,65.4293 112.5,67C 111.62,68.3561 111.286,69.8561 111.5,71.5C 112.93,71.5792 114.264,71.2458 115.5,70.5C 117.844,72.0203 120.011,73.687 122,75.5C 123.584,75.0116 124.751,74.0116 125.5,72.5C 127.063,73.9448 128.396,75.6115 129.5,77.5C 125.373,78.7798 122.873,81.4464 122,85.5C 120.984,84.3659 120.317,84.6992 120,86.5C 118.22,85.4063 116.386,84.4063 114.5,83.5C 116.517,78.3951 115.517,78.2284 111.5,83C 113.56,84.4926 113.893,86.3259 112.5,88.5C 111.604,87.4937 110.938,87.4937 110.5,88.5C 111.724,91.4953 111.724,94.4953 110.5,97.5 Z"/></g>
<g><path style="opacity:0.767" fill="#839ae5" d="M 40.5,52.5 C 40.5,53.1667 40.5,53.8333 40.5,54.5C 39.1991,55.8845 39.1991,57.3845 40.5,59C 39.4954,60.5067 38.162,61.6733 36.5,62.5C 38.6824,63.8233 39.3491,65.4899 38.5,67.5C 43.2254,70.5305 48.2254,71.8639 53.5,71.5C 54.8333,73.1667 56.1667,74.8333 57.5,76.5C 54.0534,77.0872 50.5534,77.4205 47,77.5C 46.3856,79.3134 46.7189,79.6467 48,78.5C 48.3333,79.1667 48.6667,79.8333 49,80.5C 51.016,78.2086 53.1827,78.2086 55.5,80.5C 51.7021,82.1058 49.7021,85.4391 49.5,90.5C 48.8333,91.1667 48.1667,91.8333 47.5,92.5C 46.596,93.209 46.2627,94.209 46.5,95.5C 44.7988,95.9662 43.2988,95.9662 42,95.5C 38.5969,99.684 39.7635,101.684 45.5,101.5C 45.7593,103.989 44.7593,105.656 42.5,106.5C 36.536,97.2354 32.2026,87.2354 29.5,76.5C 31.6428,67.7106 35.3094,59.7106 40.5,52.5 Z"/></g>
<g><path style="opacity:0.76" fill="#8da4ea" d="M 71.5,58.5 C 65.9254,60.0883 64.5921,63.4216 67.5,68.5C 67.1543,69.6956 66.6543,69.6956 66,68.5C 65.0691,70.4595 64.2357,72.4595 63.5,74.5C 60.2329,75.7229 60.2329,77.5562 63.5,80C 65.4335,80.7826 66.9335,80.2826 68,78.5C 68.3768,79.9423 69.2101,80.9423 70.5,81.5C 71.1651,83.061 71.3318,85.061 71,87.5C 68.2239,84.5325 65.0572,82.8659 61.5,82.5C 56.7418,84.1996 52.7418,86.8663 49.5,90.5C 49.7021,85.4391 51.7021,82.1058 55.5,80.5C 53.1827,78.2086 51.016,78.2086 49,80.5C 48.6667,79.8333 48.3333,79.1667 48,78.5C 46.7189,79.6467 46.3856,79.3134 47,77.5C 50.5534,77.4205 54.0534,77.0872 57.5,76.5C 56.1667,74.8333 54.8333,73.1667 53.5,71.5C 48.2254,71.8639 43.2254,70.5305 38.5,67.5C 39.3491,65.4899 38.6824,63.8233 36.5,62.5C 38.162,61.6733 39.4954,60.5067 40.5,59C 39.1991,57.3845 39.1991,55.8845 40.5,54.5C 42.5699,53.4927 44.5699,53.826 46.5,55.5C 47.8309,54.4078 48.6643,53.0745 49,51.5C 50.8267,52.6587 52.4933,53.992 54,55.5C 55.0793,53.6063 56.4126,53.273 58,54.5C 57.3391,52.9652 57.0058,51.2985 57,49.5C 57.414,49.9574 57.914,50.2907 58.5,50.5C 58.5331,49.011 59.0331,47.6776 60,46.5C 60.3333,47.5 60.6667,48.5 61,49.5C 62.5998,48.1341 64.4332,47.1341 66.5,46.5C 65.153,42.8904 65.8196,42.5571 68.5,45.5C 67.326,50.1726 69.326,52.3393 74.5,52C 75.1667,53 75.8333,54 76.5,55C 74.7148,56.1628 72.7148,56.8295 70.5,57C 71.056,57.3826 71.3893,57.8826 71.5,58.5 Z"/></g>
<g><path style="opacity:0.807" fill="#9fb2ee" d="M 104.5,60.5 C 101.052,60.8921 97.8857,60.2254 95,58.5C 91.0855,59.0501 87.2521,59.8834 83.5,61C 82.5494,61.7175 82.3828,62.5509 83,63.5C 85.0713,64.3639 86.738,65.6972 88,67.5C 88.3333,66.5 88.6667,65.5 89,64.5C 91.405,65.2744 93.905,65.7744 96.5,66C 97.1258,66.7504 97.6258,67.5838 98,68.5C 98.3333,68.1667 98.6667,67.8333 99,67.5C 100.119,68.5521 100.619,69.7188 100.5,71C 98.6332,71.7112 97.1332,71.2112 96,69.5C 95.3171,74.658 94.4837,74.658 93.5,69.5C 91.8762,69.6399 90.7096,68.9733 90,67.5C 89.6924,68.3081 89.1924,68.9747 88.5,69.5C 87.2322,68.5721 85.8989,68.4054 84.5,69C 85.7287,70.5292 87.2287,71.6959 89,72.5C 89.2896,74.0441 89.9563,75.3774 91,76.5C 94.386,73.2985 95.7194,73.9652 95,78.5C 92.9846,83.452 90.8179,83.6187 88.5,79C 86.0734,77.4086 83.4067,76.5752 80.5,76.5C 80.5,75.1667 80.5,73.8333 80.5,72.5C 79.0222,72.762 77.6888,72.4287 76.5,71.5C 78.4005,70.4554 80.0672,69.1221 81.5,67.5C 79.2099,65.033 77.0433,65.033 75,67.5C 73.951,65.8934 72.451,65.2267 70.5,65.5C 71.6082,67.6951 71.4415,69.6951 70,71.5C 68.4375,71.2592 66.9375,71.7592 65.5,73C 66.5,73.3333 67.5,73.6667 68.5,74C 68.1667,74.3333 67.8333,74.6667 67.5,75C 68.7155,77.0955 69.5488,76.9288 70,74.5C 70.5,75.6667 71.3333,76.5 72.5,77C 71.376,77.2492 70.376,77.7492 69.5,78.5C 70.1272,79.4168 70.4606,80.4168 70.5,81.5C 69.2101,80.9423 68.3768,79.9423 68,78.5C 66.9335,80.2826 65.4335,80.7826 63.5,80C 60.2329,77.5562 60.2329,75.7229 63.5,74.5C 64.2357,72.4595 65.0691,70.4595 66,68.5C 66.6543,69.6956 67.1543,69.6956 67.5,68.5C 64.5921,63.4216 65.9254,60.0883 71.5,58.5C 75.1667,57.1667 78.8333,57.1667 82.5,58.5C 84.7224,58.822 86.5557,58.1554 88,56.5C 88.3333,56.8333 88.6667,57.1667 89,57.5C 90.0302,55.2236 91.5302,54.5569 93.5,55.5C 97.521,52.4227 100.021,53.4227 101,58.5C 102.785,57.6462 103.951,58.3129 104.5,60.5 Z"/></g>
<g><path style="opacity:0.778" fill="#8ba1e7" d="M 93.5,29.5 C 114.643,43.7863 128.976,63.1196 136.5,87.5C 135.849,88.0906 135.182,88.7573 134.5,89.5C 133.914,89.2907 133.414,88.9574 133,88.5C 130.944,89.5832 129.611,91.2499 129,93.5C 124.984,92.8919 120.984,92.5586 117,92.5C 115.247,94.7585 113.081,96.4251 110.5,97.5C 111.724,94.4953 111.724,91.4953 110.5,88.5C 110.938,87.4937 111.604,87.4937 112.5,88.5C 113.893,86.3259 113.56,84.4926 111.5,83C 115.517,78.2284 116.517,78.3951 114.5,83.5C 116.386,84.4063 118.22,85.4063 120,86.5C 120.317,84.6992 120.984,84.3659 122,85.5C 122.873,81.4464 125.373,78.7798 129.5,77.5C 128.396,75.6115 127.063,73.9448 125.5,72.5C 124.751,74.0116 123.584,75.0116 122,75.5C 120.011,73.687 117.844,72.0203 115.5,70.5C 114.264,71.2458 112.93,71.5792 111.5,71.5C 111.286,69.8561 111.62,68.3561 112.5,67C 110.077,65.4293 108.744,63.2626 108.5,60.5C 109.5,60.5 110.5,60.5 111.5,60.5C 111.649,59.448 111.483,58.448 111,57.5C 110.326,58.5784 109.326,59.2451 108,59.5C 105.457,58.5925 103.957,56.7592 103.5,54C 100.828,53.1656 98.161,52.3323 95.5,51.5C 94.1973,52.7178 93.1973,52.3845 92.5,50.5C 90.1944,53.2304 87.8611,53.5637 85.5,51.5C 81.5867,51.759 79.5867,53.759 79.5,57.5C 80.791,57.2627 81.791,57.596 82.5,58.5C 78.8333,57.1667 75.1667,57.1667 71.5,58.5C 71.3893,57.8826 71.056,57.3826 70.5,57C 72.7148,56.8295 74.7148,56.1628 76.5,55C 75.8333,54 75.1667,53 74.5,52C 69.326,52.3393 67.326,50.1726 68.5,45.5C 65.8196,42.5571 65.153,42.8904 66.5,46.5C 64.4332,47.1341 62.5998,48.1341 61,49.5C 60.6667,48.5 60.3333,47.5 60,46.5C 59.0331,47.6776 58.5331,49.011 58.5,50.5C 57.914,50.2907 57.414,49.9574 57,49.5C 57.0058,51.2985 57.3391,52.9652 58,54.5C 56.4126,53.273 55.0793,53.6063 54,55.5C 52.4933,53.992 50.8267,52.6587 49,51.5C 48.6643,53.0745 47.8309,54.4078 46.5,55.5C 44.5699,53.826 42.5699,53.4927 40.5,54.5C 40.5,53.8333 40.5,53.1667 40.5,52.5C 43.5531,50.7306 46.8864,49.5639 50.5,49C 51.2266,47.6012 51.7266,46.1012 52,44.5C 53.0113,45.3366 54.1779,45.67 55.5,45.5C 55.3433,44.1266 55.51,42.7932 56,41.5C 59.5743,39.9282 62.5743,37.5948 65,34.5C 66.3518,36.4324 68.1851,37.7657 70.5,38.5C 72.5,37.5 74.5,36.5 76.5,35.5C 77.5827,36.365 77.7494,37.365 77,38.5C 76.6667,38.1667 76.3333,37.8333 76,37.5C 74.4933,39.008 72.8267,40.3413 71,41.5C 70.6667,41.1667 70.3333,40.8333 70,40.5C 70.5019,43.1929 70.3352,45.8596 69.5,48.5C 72.5591,50.8855 75.5591,50.8855 78.5,48.5C 80.5611,48.5427 82.7278,49.2094 85,50.5C 87.0712,47.5845 88.4046,47.9178 89,51.5C 90.1667,49.8333 91.3333,48.1667 92.5,46.5C 92.2109,41.324 90.8775,36.4907 88.5,32C 89.619,30.124 91.2856,29.2907 93.5,29.5 Z"/></g>
<g><path style="opacity:0.696" fill="#8fa4e5" d="M 85.5,21.5 C 88.1667,21.5 90.8333,21.5 93.5,21.5C 96.8333,22.8333 100.167,24.1667 103.5,25.5C 104.15,27.4352 104.483,29.4352 104.5,31.5C 106.308,31.4914 107.975,31.9914 109.5,33C 110.975,35.3092 112.642,37.4759 114.5,39.5C 118.475,42.144 122.142,45.144 125.5,48.5C 126.213,52.3637 126.213,56.0304 125.5,59.5C 115.074,43.7402 101.741,31.0735 85.5,21.5 Z"/></g>
<g><path style="opacity:0.605" fill="#7a90d9" d="M 61.5,23.5 C 62.2389,23.369 62.9056,23.5357 63.5,24C 47.1724,36.7991 35.3391,52.9657 28,72.5C 27.0441,67.3532 26.2108,62.1865 25.5,57C 29.6685,47.3527 36.0018,39.3527 44.5,33C 49.938,29.2845 55.6047,26.1178 61.5,23.5 Z"/></g>
<g><path style="opacity:0.602" fill="#708ade" d="M 103.5,25.5 C 108.47,26.4822 113.137,28.3156 117.5,31C 123.962,35.6284 129.962,40.795 135.5,46.5C 139.885,50.0762 141.552,54.7428 140.5,60.5C 140.752,69.2132 140.252,77.8798 139,86.5C 135.541,76.9156 131.041,67.9156 125.5,59.5C 126.213,56.0304 126.213,52.3637 125.5,48.5C 122.142,45.144 118.475,42.144 114.5,39.5C 112.642,37.4759 110.975,35.3092 109.5,33C 107.975,31.9914 106.308,31.4914 104.5,31.5C 104.483,29.4352 104.15,27.4352 103.5,25.5 Z"/></g>
<g><path style="opacity:0.749" fill="#333952" d="M 93.5,21.5 C 111.293,23.7198 125.293,32.0532 135.5,46.5C 129.962,40.795 123.962,35.6284 117.5,31C 113.137,28.3156 108.47,26.4822 103.5,25.5C 100.167,24.1667 96.8333,22.8333 93.5,21.5 Z"/></g>
<g><path style="opacity:0.692" fill="#8198e3" d="M 74.5,21.5 C 79.5245,22.1977 84.1911,23.8643 88.5,26.5C 90.674,26.7497 92.3406,27.7497 93.5,29.5C 91.2856,29.2907 89.619,30.124 88.5,32C 90.8775,36.4907 92.2109,41.324 92.5,46.5C 91.3333,48.1667 90.1667,49.8333 89,51.5C 88.4046,47.9178 87.0712,47.5845 85,50.5C 82.7278,49.2094 80.5611,48.5427 78.5,48.5C 75.5591,50.8855 72.5591,50.8855 69.5,48.5C 70.3352,45.8596 70.5019,43.1929 70,40.5C 70.3333,40.8333 70.6667,41.1667 71,41.5C 72.8267,40.3413 74.4933,39.008 76,37.5C 76.3333,37.8333 76.6667,38.1667 77,38.5C 77.7494,37.365 77.5827,36.365 76.5,35.5C 74.5,36.5 72.5,37.5 70.5,38.5C 68.1851,37.7657 66.3518,36.4324 65,34.5C 62.5743,37.5948 59.5743,39.9282 56,41.5C 55.51,42.7932 55.3433,44.1266 55.5,45.5C 54.1779,45.67 53.0113,45.3366 52,44.5C 51.7266,46.1012 51.2266,47.6012 50.5,49C 46.8864,49.5639 43.5531,50.7306 40.5,52.5C 42.2272,48.0518 44.7272,44.0518 48,40.5C 54.0957,33.898 60.5957,27.898 67.5,22.5C 69.9496,22.702 72.283,22.3686 74.5,21.5 Z"/></g>
<g><path style="opacity:0.729" fill="#3e435c" d="M 122.5,22.5 C 125.903,24.8998 128.57,27.8998 130.5,31.5C 127.833,29.1667 125.167,26.8333 122.5,24.5C 121.494,23.6043 121.494,22.9377 122.5,22.5 Z"/></g>
<g><path style="opacity:0.851" fill="#3a3e51" d="M 74.5,21.5 C 74.5,21.1667 74.5,20.8333 74.5,20.5C 81.0221,20.1765 87.3554,20.5098 93.5,21.5C 90.8333,21.5 88.1667,21.5 85.5,21.5C 84.448,21.3505 83.448,21.5172 82.5,22C 84.7472,23.2775 86.7472,24.7775 88.5,26.5C 84.1911,23.8643 79.5245,22.1977 74.5,21.5 Z"/></g>
<g><path style="opacity:0.243" fill="#7289d7" d="M 63.5,16.5 C 65.1172,17.038 66.7839,17.3713 68.5,17.5C 67.5,18.8333 66.5,20.1667 65.5,21.5C 49.181,25.9781 36.3477,35.3114 27,49.5C 26.3333,46.8333 26.3333,44.1667 27,41.5C 27.2784,40.5842 27.7784,39.9175 28.5,39.5C 32.7418,28.7608 40.4085,21.5941 51.5,18C 55.6877,17.8238 59.6877,17.3238 63.5,16.5 Z"/></g>
<g><path style="opacity:0.999" fill="#e8e8e7" d="M 68.5,17.5 C 70.9468,17.615 72.9468,18.615 74.5,20.5C 74.5,20.8333 74.5,21.1667 74.5,21.5C 72.283,22.3686 69.9496,22.702 67.5,22.5C 67.1583,21.6618 66.4916,21.3284 65.5,21.5C 66.5,20.1667 67.5,18.8333 68.5,17.5 Z"/></g>
<g><path style="opacity:0.388" fill="#1f2236" d="M 63.5,16.5 C 59.6877,17.3238 55.6877,17.8238 51.5,18C 40.4085,21.5941 32.7418,28.7608 28.5,39.5C 28.7986,35.8945 29.9653,32.5612 32,29.5C 39.8493,18.9986 50.3493,14.6652 63.5,16.5 Z"/></g>
<g><path style="opacity:0.575" fill="#758fe3" d="M 136.5,87.5 C 137.595,90.7167 137.429,94.05 136,97.5C 129.15,117.389 117.316,133.556 100.5,146C 97.3996,146.873 94.3996,148.04 91.5,149.5C 85.3681,147.269 79.7014,144.269 74.5,140.5C 78.8518,139.754 83.3518,139.087 88,138.5C 91.6974,140.93 95.5308,141.097 99.5,139C 101.335,136.148 103.169,133.314 105,130.5C 105.012,126.727 106.179,123.394 108.5,120.5C 107.844,117.841 107.844,115.008 108.5,112C 109.944,109.966 111.944,109.132 114.5,109.5C 114.703,107.362 115.703,105.695 117.5,104.5C 116.675,103.614 115.675,103.281 114.5,103.5C 114.64,101.876 113.973,100.71 112.5,100C 113.673,96.4719 116.006,95.1386 119.5,96C 120.653,97.883 122.319,98.7163 124.5,98.5C 124.065,95.3873 125.065,94.7207 127.5,96.5C 129.833,95 132.167,93.5 134.5,92C 136.037,90.8904 136.703,89.3904 136.5,87.5 Z"/></g>
<g><path style="opacity:0.799" fill="#93a8ea" d="M 85.5,94.5 C 83.8762,95.6197 82.3762,96.953 81,98.5C 79.8382,97.8132 78.6716,97.6466 77.5,98C 76.8447,102.634 74.178,106.3 69.5,109C 66.9023,108.578 64.2356,108.578 61.5,109C 60.8448,110.487 59.8448,111.653 58.5,112.5C 57.676,110.252 56.676,110.086 55.5,112C 57.0293,115.132 59.3626,117.465 62.5,119C 62.1667,119.333 61.8333,119.667 61.5,120C 62.2489,121.734 62.7489,123.567 63,125.5C 63.6708,126.252 64.5041,126.586 65.5,126.5C 67.099,126.768 68.4324,126.434 69.5,125.5C 71.9095,126.383 74.2429,127.55 76.5,129C 72.5742,130.726 70.2409,133.226 69.5,136.5C 64.8733,133.209 60.54,129.542 56.5,125.5C 51.5892,119.345 46.9226,113.011 42.5,106.5C 44.7593,105.656 45.7593,103.989 45.5,101.5C 39.7635,101.684 38.5969,99.684 42,95.5C 43.2988,95.9662 44.7988,95.9662 46.5,95.5C 46.2627,94.209 46.596,93.209 47.5,92.5C 50.0274,95.0329 50.0274,97.5329 47.5,100C 48.9789,102.805 50.8122,105.305 53,107.5C 57.9111,105.742 61.7444,102.742 64.5,98.5C 62.9721,95.1522 61.9721,91.6522 61.5,88C 61.6301,86.9412 62.1301,86.1079 63,85.5C 65.6457,85.6358 68.1457,86.8024 70.5,89C 69.2092,91.0902 69.8758,92.4236 72.5,93C 75.3843,92.487 78.2177,92.6537 81,93.5C 81.3333,92.8333 81.6667,92.1667 82,91.5C 82.4224,93.4257 83.5891,94.4257 85.5,94.5 Z"/></g>
<g><path style="opacity:0.075" fill="#ecedef" d="M 147.5,107.5 C 148.211,109.842 149.544,110.175 151.5,108.5C 152.171,109.847 152.171,111.014 151.5,112C 159.297,112.551 159.297,113.551 151.5,115C 152.458,116.147 152.125,117.147 150.5,118C 154.514,120.92 154.347,121.753 150,120.5C 149.583,121.756 148.75,122.423 147.5,122.5C 147.5,121.833 147.167,121.5 146.5,121.5C 146.167,121.5 145.833,121.5 145.5,121.5C 145.715,119.821 145.048,118.821 143.5,118.5C 143.649,117.448 143.483,116.448 143,115.5C 142.292,116.381 141.458,117.047 140.5,117.5C 137.514,114.527 137.847,112.193 141.5,110.5C 142.396,111.506 143.062,111.506 143.5,110.5C 143.833,110.5 144.167,110.5 144.5,110.5C 144.369,111.239 144.536,111.906 145,112.5C 145.757,110.685 146.59,109.019 147.5,107.5 Z"/></g>
<g><path style="opacity:0.424" fill="#6d85d2" d="M 141.5,110.5 C 137.847,112.193 137.514,114.527 140.5,117.5C 131.402,134.548 117.402,145.048 98.5,149C 118.419,135.687 131.919,117.52 139,94.5C 140.961,99.6389 141.794,104.972 141.5,110.5 Z"/></g>
<g><path style="opacity:0.021" fill="#f7f8fd" d="M 10.5,115.5 C 14.0115,118.389 16.0115,122.056 16.5,126.5C 16.5,127.167 16.5,127.833 16.5,128.5C 12.6086,127.273 10.6086,124.606 10.5,120.5C 7.6802,120.752 5.01354,120.252 2.5,119C 5.5,118.667 8.5,118.333 11.5,118C 10.7476,117.329 10.4142,116.496 10.5,115.5 Z"/></g>
<g><path style="opacity:0.991" fill="#e3e6f0" d="M 26.5,114.5 C 29.9302,116.464 33.5969,117.964 37.5,119C 36.2341,119.309 35.0674,119.809 34,120.5C 33.6655,122.503 32.8321,124.17 31.5,125.5C 29.2843,124.797 27.451,123.464 26,121.5C 25.6012,121.728 25.4346,122.062 25.5,122.5C 23.0905,121.617 20.7571,120.45 18.5,119C 20.744,118.95 22.4107,118.117 23.5,116.5C 25.1788,116.715 26.1788,116.048 26.5,114.5 Z"/></g>
<g><path style="opacity:0.29" fill="#abbaeb" d="M 21.5,112.5 C 22.6737,113.514 23.3404,114.847 23.5,116.5C 22.4107,118.117 20.744,118.95 18.5,119C 20.7571,120.45 23.0905,121.617 25.5,122.5C 26.1098,123.391 26.4431,124.391 26.5,125.5C 24.396,125.799 22.396,125.466 20.5,124.5C 17.5346,120.39 16.2013,121.057 16.5,126.5C 16.0115,122.056 14.0115,118.389 10.5,115.5C 10.5,115.167 10.5,114.833 10.5,114.5C 11.5,114.5 12.5,114.5 13.5,114.5C 13.5,115.5 13.5,116.5 13.5,117.5C 16.0143,117.246 18.3476,116.413 20.5,115C 21.2524,114.329 21.5858,113.496 21.5,112.5 Z"/></g>
<g><path style="opacity:0.192" fill="#242c4c" d="M 143.5,118.5 C 145.048,118.821 145.715,119.821 145.5,121.5C 144.918,124.313 143.918,126.98 142.5,129.5C 143.114,125.865 143.448,122.198 143.5,118.5 Z"/></g>
<g><path style="opacity:0.092" fill="#6f89da" d="M 145.5,121.5 C 145.833,121.5 146.167,121.5 146.5,121.5C 147.167,121.5 147.5,121.833 147.5,122.5C 148.598,123.397 148.598,124.23 147.5,125C 149.259,125.98 150.926,126.647 152.5,127C 146.724,128.363 145.39,131.363 148.5,136C 147.552,136.483 146.552,136.649 145.5,136.5C 145.111,140.349 144.111,143.682 142.5,146.5C 141.522,146.023 140.689,145.357 140,144.5C 138.245,148.084 135.412,150.417 131.5,151.5C 130.749,152.376 130.249,153.376 130,154.5C 129.586,154.043 129.086,153.709 128.5,153.5C 126.677,154.491 125.177,155.824 124,157.5C 122.855,157.381 121.688,157.048 120.5,156.5C 125.38,152.805 130.547,149.471 136,146.5C 138.997,141.505 141.164,136.172 142.5,130.5C 142.5,130.167 142.5,129.833 142.5,129.5C 143.918,126.98 144.918,124.313 145.5,121.5 Z"/></g>
<g><path style="opacity:0.643" fill="#90a5e5" d="M 44.5,113.5 C 48.2673,118.023 52.2673,122.357 56.5,126.5C 59.5,130.167 62.8333,133.5 66.5,136.5C 67.1799,138.39 67.3466,140.39 67,142.5C 68.3876,141.446 69.8876,141.28 71.5,142C 69.7678,143.653 67.6011,144.486 65,144.5C 61.6922,144.157 58.5256,143.324 55.5,142C 51.7049,135.668 47.2049,129.835 42,124.5C 40.1813,122.497 38.0146,121.164 35.5,120.5C 35.8151,123.211 35.1484,125.544 33.5,127.5C 32.5,127.167 31.8333,126.5 31.5,125.5C 32.8321,124.17 33.6655,122.503 34,120.5C 35.0674,119.809 36.2341,119.309 37.5,119C 33.5969,117.964 29.9302,116.464 26.5,114.5C 26.5,114.167 26.5,113.833 26.5,113.5C 27.1556,112.722 27.9889,112.056 29,111.5C 31.384,112.719 33.7174,112.719 36,111.5C 35.9227,112.738 36.0894,113.738 36.5,114.5C 39.0841,113.607 41.7508,113.274 44.5,113.5 Z"/></g>
<g><path style="opacity:0.949" fill="#b19f6b" d="M 85.5,21.5 C 101.741,31.0735 115.074,43.7402 125.5,59.5C 131.041,67.9156 135.541,76.9156 139,86.5C 140.252,77.8798 140.752,69.2132 140.5,60.5C 141.167,65.5 141.833,70.5 142.5,75.5C 141.916,80.004 141.25,84.504 140.5,89C 142.342,96.0451 143.342,103.212 143.5,110.5C 143.062,111.506 142.396,111.506 141.5,110.5C 141.794,104.972 140.961,99.6389 139,94.5C 131.919,117.52 118.419,135.687 98.5,149C 117.402,145.048 131.402,134.548 140.5,117.5C 141.458,117.047 142.292,116.381 143,115.5C 143.483,116.448 143.649,117.448 143.5,118.5C 143.448,122.198 143.114,125.865 142.5,129.5C 142.5,129.833 142.5,130.167 142.5,130.5C 135.215,148.988 121.548,156.988 101.5,154.5C 96.1979,151.57 91.1979,151.903 86.5,155.5C 77.2774,157.439 67.944,157.939 58.5,157C 52.7214,155.275 47.3881,152.775 42.5,149.5C 35.6528,142.461 30.3195,134.461 26.5,125.5C 26.4431,124.391 26.1098,123.391 25.5,122.5C 25.4346,122.062 25.6012,121.728 26,121.5C 27.451,123.464 29.2843,124.797 31.5,125.5C 31.8333,126.5 32.5,127.167 33.5,127.5C 48.2984,145.224 67.2984,153.058 90.5,151C 81.6737,147.425 73.6737,142.592 66.5,136.5C 62.8333,133.5 59.5,130.167 56.5,126.5C 56.5,126.167 56.5,125.833 56.5,125.5C 60.54,129.542 64.8733,133.209 69.5,136.5C 71.1423,137.803 72.8089,139.136 74.5,140.5C 79.7014,144.269 85.3681,147.269 91.5,149.5C 94.3996,148.04 97.3996,146.873 100.5,146C 117.316,133.556 129.15,117.389 136,97.5C 137.429,94.05 137.595,90.7167 136.5,87.5C 128.976,63.1196 114.643,43.7863 93.5,29.5C 92.3406,27.7497 90.674,26.7497 88.5,26.5C 86.7472,24.7775 84.7472,23.2775 82.5,22C 83.448,21.5172 84.448,21.3505 85.5,21.5 Z"/></g>
<g><path style="opacity:0.24" fill="#6880d0" d="M 102.5,152.5 C 108.579,150.294 114.245,147.294 119.5,143.5C 127.805,137.361 134.971,130.028 141,121.5C 138.205,144.117 125.372,154.45 102.5,152.5 Z"/></g>
<g><path style="opacity:0.182" fill="#718bdd" d="M 26.5,125.5 C 30.3195,134.461 35.6528,142.461 42.5,149.5C 51.7869,158.077 62.7869,161.243 75.5,159C 79.4914,158.502 83.158,157.335 86.5,155.5C 91.1979,151.903 96.1979,151.57 101.5,154.5C 102.551,155.222 103.218,156.222 103.5,157.5C 99.799,157.97 96.4656,159.303 93.5,161.5C 92.8333,160.167 92.1667,160.167 91.5,161.5C 90.1667,161.833 90.1667,162.167 91.5,162.5C 88.8664,163.133 87.1998,164.8 86.5,167.5C 85.5,167.5 84.5,167.5 83.5,167.5C 83.9175,166.778 84.5842,166.278 85.5,166C 83.6476,165.227 82.3143,165.727 81.5,167.5C 81.1667,167.5 80.8333,167.5 80.5,167.5C 80.1344,166.305 79.301,165.639 78,165.5C 76.0247,166.251 74.3581,166.251 73,165.5C 71.7817,163.981 70.2817,162.814 68.5,162C 69.6956,161.346 69.6956,160.846 68.5,160.5C 61.4997,162.996 54.4997,165.329 47.5,167.5C 44.5,167.5 41.5,167.5 38.5,167.5C 37.1751,165.187 35.1751,163.521 32.5,162.5C 31.4526,159.29 29.786,156.456 27.5,154C 28.6544,151.27 27.9878,148.936 25.5,147C 26.412,144.032 27.7453,141.698 29.5,140C 28.5294,138.796 27.5294,138.296 26.5,138.5C 27.0253,137.808 27.6919,137.308 28.5,137C 26.1667,136.667 23.8333,136.333 21.5,136C 21.8333,135.667 22.1667,135.333 22.5,135C 21.1509,134.228 20.3176,133.061 20,131.5C 19.586,131.957 19.086,132.291 18.5,132.5C 17.6376,131.234 16.9709,129.901 16.5,128.5C 16.5,127.833 16.5,127.167 16.5,126.5C 16.2013,121.057 17.5346,120.39 20.5,124.5C 22.396,125.466 24.396,125.799 26.5,125.5 Z"/></g>
<g><path style="opacity:0.35" fill="#7089dd" d="M 78.5,154.5 C 58.8099,158.704 43.8099,152.037 33.5,134.5C 33.4346,134.062 33.6012,133.728 34,133.5C 46.3221,145.744 61.1555,152.744 78.5,154.5 Z"/></g>
<g><path style="opacity:0.69" fill="#7188d4" d="M 66.5,136.5 C 73.6737,142.592 81.6737,147.425 90.5,151C 67.2984,153.058 48.2984,145.224 33.5,127.5C 35.1484,125.544 35.8151,123.211 35.5,120.5C 38.0146,121.164 40.1813,122.497 42,124.5C 47.2049,129.835 51.7049,135.668 55.5,142C 58.5256,143.324 61.6922,144.157 65,144.5C 67.6011,144.486 69.7678,143.653 71.5,142C 69.8876,141.28 68.3876,141.446 67,142.5C 67.3466,140.39 67.1799,138.39 66.5,136.5 Z"/></g>
<g><path style="opacity:0.773" fill="#2f3655" d="M 78.5,154.5 C 61.1555,152.744 46.3221,145.744 34,133.5C 33.6012,133.728 33.4346,134.062 33.5,134.5C 31.9014,133.201 31.4014,131.535 32,129.5C 45.8368,144.5 63.0034,152.667 83.5,154C 81.8659,154.494 80.1992,154.66 78.5,154.5 Z"/></g>
<g><path style="opacity:0.545" fill="#333954" d="M 119.5,143.5 C 114.245,147.294 108.579,150.294 102.5,152.5C 100.621,152.607 100.288,152.107 101.5,151C 107.565,148.591 113.565,146.091 119.5,143.5 Z"/></g>
<g><path style="opacity:0.004" fill="#7392e7" d="M 25.5,150.5 C 26.8333,151.167 26.8333,151.167 25.5,150.5 Z"/></g>
<g><path style="opacity:0.004" fill="#768ee3" d="M 23.5,153.5 C 24.8333,154.167 24.8333,154.167 23.5,153.5 Z"/></g>
<g><path style="opacity:0.478" fill="#2d3048" d="M 42.5,149.5 C 47.3881,152.775 52.7214,155.275 58.5,157C 67.944,157.939 77.2774,157.439 86.5,155.5C 83.158,157.335 79.4914,158.502 75.5,159C 62.7869,161.243 51.7869,158.077 42.5,149.5 Z"/></g>
<g><path style="opacity:0.182" fill="#181a22" d="M 142.5,130.5 C 141.164,136.172 138.997,141.505 136,146.5C 130.547,149.471 125.38,152.805 120.5,156.5C 116.196,157.131 111.863,157.631 107.5,158C 107,158.5 106.5,159 106,159.5C 105.583,158.244 104.75,157.577 103.5,157.5C 103.218,156.222 102.551,155.222 101.5,154.5C 121.548,156.988 135.215,148.988 142.5,130.5 Z"/></g>
<g><path style="opacity:0.006" fill="#7592e7" d="M 126.5,157.5 C 127.525,157.897 127.692,158.563 127,159.5C 126.536,158.906 126.369,158.239 126.5,157.5 Z"/></g>
<g><path style="opacity:0.004" fill="#758eea" d="M 116.5,159.5 C 117.833,160.167 117.833,160.167 116.5,159.5 Z"/></g>
<g><path style="opacity:0.012" fill="#7591e4" d="M 100.5,161.5 C 100.897,160.475 101.563,160.308 102.5,161C 101.906,161.464 101.239,161.631 100.5,161.5 Z"/></g>
<g><path style="opacity:0.012" fill="#768fe5" d="M 91.5,162.5 C 91.5,162.167 91.5,161.833 91.5,161.5C 92.1667,161.5 92.8333,161.5 93.5,161.5C 93.1583,162.338 92.4916,162.672 91.5,162.5 Z"/></g>
<g><path style="opacity:0.004" fill="#748fe4" d="M 96.5,163.5 C 97.8333,164.167 97.8333,164.167 96.5,163.5 Z"/></g>
</svg>
